<?xml version="1.0" ?><svg viewBox="0 0 64 64" xmlns="http://www.w3.org/2000/svg"><g id="a"/><g id="b"/><g id="c"/><g id="d"/><g id="e"/><g id="f"/><g id="g"/><g id="h"/><g id="i"/><g id="j"/><g id="k"/><g id="l"/><g id="m"/><g id="n"/><g id="o"/><g id="p"/><g id="q"/><g id="r"/><g id="s"/><g id="t"/><g id="u"/><g id="v"/><g id="w"/><g id="x"/><g id="y"/><g id="a`"/><g id="aa"/><g id="ab"/><g id="ac"/><g id="ad"/><g id="ae"/><g id="af"/><g id="ag"/><g id="ah"/><g id="ai"/><g id="aj"/><g id="ak"/><g id="al"/><g id="am"/><g id="an"/><g id="ao"/><g id="ap"/><g id="aq"/><g id="ar"/><g id="as"><path d="M56.69,37.71l-14.01-.9-18.44,9.59,25.75,6.9c1.3,.35,2.63-.42,2.98-1.72l3.72-13.87Z" fill="#f5e680" fill-rule="evenodd"/><path d="M18.78,47.86l1.75-13.1-8.95-13.77-4.77,1.28c-1.3,.35-2.07,1.68-1.72,2.98l5.94,22.17c.35,1.3,1.68,2.07,2.98,1.72l4.77-1.28Z" fill="#f0f3f5" fill-rule="evenodd"/><path d="M50.72,10.62c-.24-.01-.48,.01-.73,.08L11.58,20.99l7.2,26.87,38.42-10.29c1.3-.35,2.07-1.68,1.72-2.98l-5.94-22.17c-.28-1.06-1.22-1.76-2.25-1.8Z" fill="#e8a3c1" fill-rule="evenodd"/><path d="M51.63,20.61c-1-3.72-4.82-5.92-8.54-4.93-3.72,1-5.92,4.82-4.93,8.54s4.82,5.92,8.54,4.93c3.72-1,5.92-4.82,4.93-8.54Z" fill="#f0f3f5" fill-rule="evenodd"/><path d="M43.99,17.82c-.1,0-.21,.01-.31,.04-.53,.14-.85,.69-.71,1.22l.03,.11c-.7,.59-1.05,1.55-.8,2.48,.34,1.28,1.68,2.05,2.95,1.71,.23-.06,.44,.06,.51,.29,.06,.23-.06,.45-.29,.51-.12,.03-.22,0-.31-.04-.15-.09-.33-.14-.5-.14-.36,0-.69,.19-.87,.5-.09,.15-.13,.33-.13,.5,0,.36,.19,.69,.5,.87,.25,.14,.52,.24,.81,.29l.03,.1c.14,.53,.69,.85,1.22,.71s.85-.69,.71-1.22l-.03-.11c.7-.59,1.05-1.55,.8-2.49-.34-1.27-1.68-2.04-2.96-1.7-.23,.06-.44-.06-.5-.29-.06-.24,.06-.45,.29-.51,.12-.03,.22-.01,.31,.04,.15,.09,.33,.14,.5,.14,.36,0,.69-.19,.87-.5,.27-.48,.11-1.1-.37-1.37-.25-.14-.52-.24-.81-.29l-.03-.11c-.11-.41-.48-.71-.91-.74Z" fill="#7a8594" fill-rule="evenodd"/><path d="M30.56,18.8c.28,.16,.46,.47,.46,.8,0,.16-.04,.32-.12,.46-.16,.28-.47,.45-.8,.45-.16,0-.32-.04-.46-.12-.28-.16-.46-.47-.46-.79,0-.16,.04-.32,.12-.46,.16-.29,.47-.46,.8-.46,.16,0,.32,.04,.46,.12Z" fill="#de75a4" fill-rule="evenodd"/><path d="M27.76,19.55c.28,.16,.46,.47,.46,.8,0,.16-.04,.31-.12,.45-.16,.29-.47,.46-.8,.46-.16,0-.32-.04-.46-.12-.28-.16-.46-.47-.46-.79,0-.17,.04-.32,.12-.46,.16-.29,.47-.46,.8-.46,.16,0,.32,.04,.46,.12Z" fill="#de75a4" fill-rule="evenodd"/><path d="M24.97,20.3c.28,.16,.46,.47,.46,.79,0,.17-.04,.32-.12,.46-.16,.29-.47,.46-.8,.46-.16,0-.32-.04-.46-.12-.28-.16-.46-.47-.46-.8,0-.16,.04-.32,.12-.46,.16-.28,.47-.45,.8-.45,.16,0,.32,.04,.46,.12Z" fill="#de75a4" fill-rule="evenodd"/><path d="M20.93,21.02l-4.55,1.22c-.53,.14-.85,.69-.71,1.22,.14,.53,.69,.85,1.22,.71l4.55-1.22c.53-.14,.85-.7,.71-1.23-.14-.53-.69-.84-1.22-.7Z" fill="#f0f3f5" fill-rule="evenodd"/><path d="M31.62,22.76c.44,.25,.59,.81,.34,1.25-.25,.44-.82,.59-1.25,.34-.44-.26-.59-.82-.34-1.26,.25-.44,.82-.59,1.25-.33Z" fill="#f0f3f5" fill-rule="evenodd"/><path d="M28.3,23.29l-10.86,2.9c-.53,.15-.85,.7-.71,1.23,.12,.43,.51,.74,.97,.74,.09,0,.17-.01,.26-.03l10.86-2.91c.53-.15,.85-.7,.71-1.23-.14-.53-.69-.85-1.22-.7Z" fill="#f0f3f5" fill-rule="evenodd"/><path d="M24.75,37.8l-3.2,.86c-.53,.14-.85,.69-.71,1.22,.14,.53,.69,.85,1.22,.71l3.2-.86c.53-.14,.85-.69,.71-1.22-.14-.53-.69-.85-1.22-.71Z" fill="#f0f3f5" fill-rule="evenodd"/><path d="M28.29,39.96l-5.97,1.6c-.44,.12-.74,.52-.74,.97,0,.09,.01,.17,.03,.26,.14,.53,.69,.85,1.22,.71l5.97-1.61c.53-.14,.85-.69,.71-1.22-.14-.53-.69-.85-1.22-.71Z" fill="#f0f3f5" fill-rule="evenodd"/><path d="M48.7,32.85c-.35-.02-.68,.14-.88,.42l-1.03,1.47-.96-.97c-.19-.19-.44-.3-.71-.3-.47,0-.89,.34-.98,.81,0,0-.06,.36-.43,.98-.37,.63-1.02,1.44-2.19,2.15-.47,.28-.62,.9-.34,1.37,.28,.47,.9,.62,1.37,.34,1.48-.89,2.37-1.98,2.88-2.84,.01-.03,0-.02,.02-.05l.76,.77c.19,.19,.44,.3,.71,.3,.33,0,.63-.16,.82-.43l1.03-1.48c.24,.22,.42,.44,.78,.63,1.23,.64,3.15,.82,5.47-.45,.48-.27,.66-.88,.39-1.36-.26-.48-.88-.66-1.36-.39-1.87,1.03-2.89,.78-3.57,.43-.68-.36-.96-.88-.96-.88-.17-.31-.48-.51-.82-.52Z" fill="#7a8594" fill-rule="evenodd"/><path d="M41.29,33.68l-1.09,.29c-.53,.14-.85,.69-.71,1.22,.14,.53,.69,.85,1.22,.71l1.09-.29c.53-.14,.85-.7,.71-1.23-.14-.53-.69-.84-1.22-.7Z" fill="#7a8594" fill-rule="evenodd"/><path d="M41.32,43.61c-.36-.08-.74,.04-.98,.32,0,0-.23,.27-.86,.63-.63,.36-1.6,.74-2.97,.77-.55,.01-.99,.47-.98,1.02,.01,.54,.46,.98,1,.98h.02c1.72-.04,3.04-.53,3.91-1.03,.02-.01,.01-.01,.04-.02l.27,1.04c.11,.44,.51,.75,.97,.75,.15,0,.29-.03,.42-.1l1.63-.76c.1,.31,.15,.59,.36,.93,.74,1.17,2.32,2.29,4.96,2.34h.02c.54,0,.99-.44,1-.98v-.02c0-.54-.44-.99-.98-1-2.14-.04-2.9-.76-3.31-1.41-.41-.65-.4-1.25-.4-1.25v-.02c0-.55-.45-1-1-1-.15,0-.29,.03-.42,.09l-1.62,.76-.35-1.32c-.09-.35-.38-.63-.74-.72Z" fill="#f9f3c7" fill-rule="evenodd"/></g><g id="at"/><g id="au"/><g id="av"/><g id="aw"/><g id="ax"/></svg>